<mxfile host="app.diagrams.net" modified="2021-02-04T06:45:31.400Z" agent="5.0 (Macintosh; Intel Mac OS X 11_3_0) AppleWebKit/537.36 (KHTML, like Gecko) Chrome/88.0.4324.146 Safari/537.36" etag="SNSZgjHtrjUoOWglXYdg" version="14.2.9" type="github">
  <diagram id="wTRm54d5KFvVg9odD5xq" name="Page-1">
    <mxGraphModel dx="826" dy="474" grid="1" gridSize="10" guides="1" tooltips="1" connect="1" arrows="1" fold="1" page="1" pageScale="1" pageWidth="980" pageHeight="690" math="0" shadow="0">
      <root>
        <mxCell id="0" />
        <mxCell id="1" parent="0" />
        <mxCell id="H3xTM8ek_7Eattmy8FQx-3" style="edgeStyle=orthogonalEdgeStyle;rounded=0;orthogonalLoop=1;jettySize=auto;html=1;exitX=1;exitY=0.5;exitDx=0;exitDy=0;entryX=0;entryY=0.5;entryDx=0;entryDy=0;" edge="1" parent="1" source="H3xTM8ek_7Eattmy8FQx-1" target="H3xTM8ek_7Eattmy8FQx-2">
          <mxGeometry relative="1" as="geometry" />
        </mxCell>
        <mxCell id="H3xTM8ek_7Eattmy8FQx-1" value="" style="whiteSpace=wrap;html=1;aspect=fixed;" vertex="1" parent="1">
          <mxGeometry x="40" y="40" width="80" height="80" as="geometry" />
        </mxCell>
        <mxCell id="H3xTM8ek_7Eattmy8FQx-2" value="" style="whiteSpace=wrap;html=1;aspect=fixed;" vertex="1" parent="1">
          <mxGeometry x="180" y="40" width="80" height="80" as="geometry" />
        </mxCell>
      </root>
    </mxGraphModel>
  </diagram>
</mxfile>
